<svg width="20" height="20" fill="none" xmlns="http://www.w3.org/2000/svg"><path d="M11.556 2.575A1.76 1.76 0 0 0 10 0a1.76 1.76 0 0 0-1.555 2.575c-4.103.737-7.226 4.332-7.226 8.644C1.219 16.06 5.158 20 10 20c4.842 0 8.781-3.94 8.781-8.781 0-4.312-3.123-7.907-7.225-8.644ZM10 1.172a.587.587 0 1 1-.001 1.173A.587.587 0 0 1 10 1.172Zm0 17.656c-4.196 0-7.61-3.413-7.61-7.61C2.39 7.024 5.805 3.61 10 3.61s7.61 3.414 7.61 7.61-3.414 7.61-7.61 7.61Z" fill="#fff" fill-opacity=".54"/><path d="m14.583 6.681-.026-.028-.029-.026A6.432 6.432 0 0 0 10 4.766c-1.77 0-3.375.716-4.542 1.874l-.015.013-.012.013a6.433 6.433 0 0 0-1.884 4.553c0 .323.262.586.586.586h.664a.586.586 0 1 0 0-1.172h-.045A5.256 5.256 0 0 1 5.88 7.919l.032.033a.584.584 0 0 0 .829 0 .586.586 0 0 0 0-.829l-.032-.032a5.256 5.256 0 0 1 2.705-1.12v.045a.586.586 0 1 0 1.172 0V5.97a5.256 5.256 0 0 1 2.704 1.122l-.03.031a.586.586 0 0 0 .828.829l.032-.032a5.257 5.257 0 0 1 1.128 2.705h-.053a.586.586 0 1 0 0 1.172h.673a.586.586 0 0 0 .585-.587 6.432 6.432 0 0 0-1.87-4.529Z" fill="#fff" fill-opacity=".54"/><path d="M12.657 8.562a.586.586 0 0 0-.829 0l-2.446 2.446c-.271-.13-.574-.189-.88-.167a.586.586 0 1 0 .082 1.169.585.585 0 0 1 .625.618.586.586 0 0 0 1.17.068 1.76 1.76 0 0 0-.169-.859l2.447-2.447a.586.586 0 0 0 0-.828ZM13.36 15.43H6.64a.586.586 0 1 0 0 1.172h6.72a.586.586 0 0 0 0-1.172Z" fill="#fff" fill-opacity=".54"/></svg>